<svg width="180" height="180" xmlns="http://www.w3.org/2000/svg"><defs><mask fill="#fff" id="a"><path d="M180 90c0 50.4-39.6 90-90 90S0 140.4 0 90 39.6 0 90 0s90 39.6 90 90ZM30 90c0 33.6 26.4 60 60 60s60-26.4 60-60-26.4-60-60-60-60 26.4-60 60Z" fill-rule="evenodd"/></mask></defs><path d="M180 90c0 50.4-39.6 90-90 90S0 140.4 0 90 39.6 0 90 0s90 39.6 90 90ZM30 90c0 33.6 26.4 60 60 60s60-26.4 60-60-26.4-60-60-60-60 26.4-60 60Z" fill="#d28418"/><path d="M180 90c0 50.4-39.6 90-90 90S0 140.4 0 90 39.6 0 90 0s90 39.6 90 90Z" stroke-width="2" stroke="#d58220" fill="none" mask="url(#a)"/><path d="M30 90c0 33.6 26.4 60 60 60s60-26.4 60-60-26.4-60-60-60-60 26.4-60 60Z" stroke-width="2" stroke="#d58220" fill="none" mask="url(#a)"/></svg>