<svg width="128" height="54" xmlns="http://www.w3.org/2000/svg"><defs><mask fill="#fff" id="a"><path d="m128 10.25-2.75-9.5-2.25 9.5v12h-3.75V24H.5l118.75 3.75v1.75H123V44l2.25 9.5L128 44V10.25Z" fill-rule="evenodd"/></mask></defs><path d="m128 10.25-2.75-9.5-2.25 9.5v12h-3.75V24H.5l118.75 3.75v1.75H123V44l2.25 9.5L128 44V10.25Z" fill="#53befe"/><path d="m128 10.25-2.75-9.5-2.25 9.5v12h-3.75V24H.5l118.75 3.75v1.75H123V44l2.25 9.5L128 44V10.25Z" stroke-width="2" stroke="#52bafc" fill="none" mask="url(#a)"/></svg>