<svg width="110" height="104" xmlns="http://www.w3.org/2000/svg"><defs><linearGradient gradientUnits="userSpaceOnUse" x1="55" y1="0" x2="55" y2="104" id="a"><stop stop-color="#bd2180" offset="0"/><stop stop-color="#67afd9" offset="1"/></linearGradient><linearGradient gradientUnits="userSpaceOnUse" x1="55" y1="0" x2="55" y2="104" id="b"><stop stop-color="#bd2180" offset="0"/><stop stop-color="#67afd9" offset="1"/></linearGradient><mask fill="#fff" id="c"><path d="m84.062 102.472-5.2-8.42C91.636 86.129 100 71.924 100 55.42c0-25.392-19.8-45.344-45-45.344S10 30.028 10 55.42c0 17.406 9.304 32.256 23.273 39.875L28.53 104C10.935 94.266 0 75.646 0 55.42 0 24.813 24.624 0 55 0s55 24.813 55 55.42c0 19.146-9.807 36.935-25.938 47.052Z" fill-rule="evenodd"/></mask></defs><path d="m84.062 102.472-5.2-8.42C91.636 86.129 100 71.924 100 55.42c0-25.392-19.8-45.344-45-45.344S10 30.028 10 55.42c0 17.406 9.304 32.256 23.273 39.875L28.53 104C10.935 94.266 0 75.646 0 55.42 0 24.813 24.624 0 55 0s55 24.813 55 55.42c0 19.146-9.807 36.935-25.938 47.052Z" fill="url(#a)"/><path d="m84.062 102.472-5.2-8.42C91.636 86.129 100 71.924 100 55.42c0-25.392-19.8-45.344-45-45.344S10 30.028 10 55.42c0 17.406 9.304 32.256 23.273 39.875L28.53 104C10.935 94.266 0 75.646 0 55.42 0 24.813 24.624 0 55 0s55 24.813 55 55.42c0 19.146-9.807 36.935-25.938 47.052Z" stroke-width="2" stroke="url(#b)" fill="none" mask="url(#c)"/></svg>